<svg width="981.61" height="1227.52" viewBox="0 0 981.61 1227.52" xmlns="http://www.w3.org/2000/svg" xmlns:xlink="http://www.w3.org/1999/xlink" overflow="visible"><style>
.MsftOfcThm_Accent1_lumMod_75_Stroke_v2 {
 stroke:#E3B18D; 
}
</style>
<defs></defs><g><g><defs><rect x="14.77" y="224.85" width="693.62" height="720" id="SVGID_1_" class="MsftOfcThm_Accent1_lumMod_75_Stroke_v2" stroke="#E3B18D" stroke-width="1.49997" fill="none"/></defs><clipPath id="SVGID_2_"><use width="100%" height="100%" xlink:href="#SVGID_1_" overflow="visible"></use></clipPath><g clip-path="url(#SVGID_2_)"><defs><rect x="-155.92" y="235.92" width="1069.79" height="757.96" id="SVGID_3_" class="MsftOfcThm_Accent1_lumMod_75_Stroke_v2" stroke="#E3B18D" stroke-width="1.49997" fill="none" transform="matrix(-1.83697e-16 1 -1 -1.83697e-16 993.878 235.92)"/></defs><clipPath id="SVGID_4_"><use width="100%" height="100%" xlink:href="#SVGID_3_" overflow="visible"></use></clipPath><path d="M807.49 144.44 209.04 461.04 330.25 967.59 980 1062.57 356.76 169.77 31.02 583.46 178.74 864.17 980 682.66 797.42 1.7 368.12 583.46 803.7 1225.09Z" class="MsftOfcThm_Accent1_lumMod_75_Stroke_v2" stroke="#E3B18D" stroke-width="1.49997" stroke-miterlimit="10" fill="none" clip-path="url(#SVGID_4_)"/></g></g><path d="M708.39 275.04 303.51 604.4 708.39 909.25" class="MsftOfcThm_Accent1_lumMod_75_Stroke_v2" stroke="#E3B18D" stroke-width="1.49997" stroke-miterlimit="10" fill="none"/><path d="M708.39 556.91 309.64 324.06 191.68 728.49 639 808.15 708.39 716.23" class="MsftOfcThm_Accent1_lumMod_75_Stroke_v2" stroke="#E3B18D" stroke-width="1.49997" stroke-miterlimit="10" fill="none"/><path d="M664.54 944.85 530.24 634.89 708.39 431.53" class="MsftOfcThm_Accent1_lumMod_75_Stroke_v2" stroke="#E3B18D" stroke-width="1.49997" stroke-miterlimit="10" fill="none"/><path d="M708.39 549.03 620.62 459.89 435.26 612.06 584.84 688.19 708.39 616.71" class="MsftOfcThm_Accent1_lumMod_75_Stroke_v2" stroke="#E3B18D" stroke-width="1.49997" stroke-miterlimit="10" fill="none"/><path d="M708.39 408.17 517.98 592.15 681.9 714.7 708.39 687.54" class="MsftOfcThm_Accent1_lumMod_75_Stroke_v2" stroke="#E3B18D" stroke-width="1.49997" stroke-miterlimit="10" fill="none"/><path d="" class="MsftOfcThm_Accent1_lumMod_75_Stroke_v2" stroke="#E3B18D" stroke-width="1.49997" stroke-miterlimit="10" fill="none"/><path d="M609.9 420.57 450.04 551.29 567 738.17 678.83 574.04Z" class="MsftOfcThm_Accent1_lumMod_75_Stroke_v2" stroke="#E3B18D" stroke-width="1.49997" stroke-miterlimit="10" fill="none"/></g></svg>